<?xml version="1.0" standalone="no"?>
<!DOCTYPE svg PUBLIC "-//W3C//DTD SVG 20010904//EN"
 "http://www.w3.org/TR/2001/REC-SVG-20010904/DTD/svg10.dtd">
<svg version="1.0" xmlns="http://www.w3.org/2000/svg"
 width="889.000000pt" height="424.000000pt" viewBox="0 0 889.000000 424.000000"
 preserveAspectRatio="xMidYMid meet">

<g transform="translate(0.000000,424.000000) scale(0.100000,-0.100000)"
fill="#000000" stroke="none">
<path d="M4705 3998 c-222 -42 -383 -266 -347 -482 6 -37 23 -92 38 -124 16
-31 28 -62 27 -68 0 -9 -799 -990 -1185 -1457 -26 -32 -48 -64 -47 -70 1 -13
142 -137 156 -137 5 0 19 14 32 30 23 32 29 32 80 -9 l25 -19 -29 -38 -29 -38
59 -53 c32 -29 63 -53 69 -52 6 0 43 41 81 91 39 50 103 132 142 182 40 50 73
94 73 98 0 10 -113 98 -127 98 -6 0 -31 -25 -55 -55 -23 -30 -46 -55 -51 -55
-13 0 -67 43 -67 53 0 5 30 46 67 91 37 44 68 83 69 85 2 2 51 -34 110 -79 59
-45 110 -78 115 -73 20 21 99 127 99 134 0 4 -45 42 -101 84 -91 70 -99 79
-87 96 54 77 776 948 786 948 12 1 431 -405 1052 -1016 l165 -163 -53 0 -53 0
-147 143 c-151 145 -471 453 -782 750 -96 92 -177 167 -180 167 -4 0 -60 -64
-126 -142 -254 -303 -243 -284 -104 -183 98 71 129 89 138 80 4 -3 199 -198
434 -433 l428 -427 0 -312 0 -313 -214 0 -214 0 -4 188 c-3 186 -3 187 -35
254 -97 205 -335 293 -537 197 -74 -34 -151 -111 -188 -187 l-33 -66 -5 -191
-5 -190 -172 -3 -173 -2 0 155 c0 85 -3 155 -8 155 -4 0 -56 -63 -116 -140
-94 -122 -111 -139 -125 -128 -8 7 -118 102 -244 212 -150 130 -226 203 -223
212 3 8 249 311 546 674 l540 659 0 81 0 80 -345 0 -346 0 3 -122 c3 -119 4
-123 26 -126 21 -3 22 -8 22 -80 l0 -77 -143 -180 c-79 -99 -270 -339 -425
-533 -155 -194 -282 -357 -282 -363 0 -5 71 -9 170 -9 l170 0 0 -274 0 -274
753 -6 c413 -4 964 -6 1222 -4 l470 3 3 333 2 332 281 0 c154 0 279 4 277 9
-1 4 -281 280 -620 612 -390 381 -613 606 -605 610 6 3 34 9 60 12 161 21 316
178 349 354 41 221 -125 450 -356 492 -68 13 -82 12 -151 -1z m172 -273 c53
-31 83 -86 83 -150 0 -158 -194 -234 -302 -119 -139 149 43 372 219 269z
m-777 -520 c0 -19 -49 -83 -181 -238 -100 -117 -185 -213 -190 -215 -5 -2 -10
83 -11 190 -3 192 -3 193 -25 196 -20 3 -23 9 -23 48 l0 44 215 0 215 0 0 -25z
m367 -1436 c46 -22 90 -73 109 -128 8 -22 13 -88 14 -173 l0 -138 -175 0 -175
0 0 176 c0 157 2 181 21 225 17 38 28 51 53 59 41 12 101 4 153 -21z"/>
<path d="M934 990 c-52 -12 -98 -46 -124 -92 -23 -40 -25 -53 -25 -173 0 -124
1 -132 27 -177 61 -102 244 -129 346 -51 58 44 77 100 77 228 0 128 -19 184
-77 228 -53 41 -146 56 -224 37z m125 -105 c38 -19 51 -60 51 -162 0 -126 -30
-173 -110 -173 -63 0 -100 65 -100 175 0 143 66 209 159 160z"/>
<path d="M166 980 c-16 -5 -33 -15 -37 -22 -5 -7 -9 -122 -9 -255 l0 -243 34
0 c19 0 44 9 57 19 22 17 24 29 28 110 l3 92 87 -3 86 -3 3 -107 3 -108 33 0
c19 0 44 9 57 19 24 19 24 21 27 251 4 260 3 265 -57 254 -20 -4 -40 -11 -46
-16 -5 -5 -12 -48 -15 -96 l-5 -87 -87 -3 -88 -3 0 100 c0 116 -4 121 -74 101z"/>
<path d="M1563 983 c-63 -8 -70 -29 -78 -250 -4 -109 -8 -214 -8 -233 -2 -33
0 -35 34 -38 29 -2 41 2 57 22 17 22 21 48 27 177 4 83 11 147 15 142 4 -4 26
-53 49 -108 57 -136 63 -145 110 -145 49 0 60 13 106 125 20 50 42 101 48 115
l10 25 7 -30 c4 -16 8 -75 9 -130 2 -157 22 -201 89 -193 l27 3 -4 145 c-2 80
-6 197 -10 260 l-6 115 -60 -3 c-41 -2 -66 -8 -77 -20 -10 -10 -42 -78 -72
-152 -30 -74 -58 -135 -62 -137 -5 -1 -35 64 -68 145 -32 81 -63 153 -68 160
-10 12 -15 12 -75 5z"/>
<path d="M2399 983 c-21 -2 -46 -14 -58 -27 -21 -22 -22 -32 -22 -224 0 -131
4 -209 11 -223 20 -37 70 -49 200 -49 115 0 120 1 120 21 0 53 -47 79 -145 79
-28 0 -56 5 -63 12 -7 7 -12 34 -12 60 l0 48 80 0 c73 0 81 2 95 24 33 49 -6
76 -111 76 l-64 0 0 44 c0 24 6 48 13 54 6 5 47 12 91 14 67 3 81 7 97 27 10
13 19 32 19 42 0 17 -8 19 -87 19 -49 0 -97 2 -108 4 -11 2 -36 1 -56 -1z"/>
<path d="M3310 978 c-46 -25 -51 -48 -48 -260 l3 -198 28 -27 c24 -24 36 -28
102 -31 123 -7 182 5 222 42 29 27 36 41 40 82 6 58 -14 106 -50 125 -33 17
-33 17 -3 48 56 58 42 172 -26 207 -43 24 -231 31 -268 12z m195 -92 c13 -9
19 -26 19 -51 0 -49 -23 -65 -91 -65 l-53 0 0 58 c0 32 3 62 7 65 12 12 99 7
118 -7z m15 -221 c26 -23 26 -69 0 -95 -23 -23 -108 -28 -128 -8 -13 13 -17
110 -4 122 13 14 111 0 132 -19z"/>
<path d="M4606 980 c-16 -5 -33 -15 -37 -22 -5 -7 -9 -122 -9 -255 l0 -243 34
0 c19 0 44 9 57 19 24 19 24 21 27 257 3 271 5 267 -72 244z"/>
<path d="M5525 983 c-11 -3 -30 -14 -42 -26 -22 -20 -23 -26 -23 -224 0 -127
4 -212 11 -225 15 -29 70 -48 136 -48 175 1 267 76 280 228 16 188 -69 286
-257 296 -47 3 -94 3 -105 -1z m176 -109 c40 -20 59 -68 59 -149 0 -119 -39
-169 -127 -163 l-48 3 -3 150 c-1 82 0 155 2 162 7 18 80 16 117 -3z"/>
<path d="M6242 980 c-116 -7 -119 -13 -121 -245 -1 -166 7 -218 39 -249 18
-19 34 -21 160 -24 138 -4 140 -4 140 18 0 54 -46 80 -145 80 -28 0 -56 5 -63
12 -7 7 -12 34 -12 60 l0 48 80 0 c73 0 81 2 95 24 33 49 -6 76 -111 76 l-64
0 0 39 c0 68 4 71 84 71 39 0 82 6 96 13 22 11 50 61 39 70 -8 8 -136 12 -217
7z"/>
<path d="M8348 975 c-20 -11 -32 -33 -52 -92 -31 -98 -126 -410 -126 -418 0
-3 17 -5 39 -5 50 0 87 29 95 75 l7 36 91 -3 91 -3 12 -34 c15 -46 49 -71 96
-71 21 0 39 3 39 8 0 4 -34 123 -77 265 l-77 257 -55 0 c-31 -1 -68 -7 -83
-15z m86 -182 c13 -50 27 -101 31 -112 6 -20 3 -21 -60 -21 -59 0 -66 2 -61
18 3 9 17 61 32 115 15 54 28 96 30 94 2 -2 14 -44 28 -94z"/>
<path d="M3890 799 c0 -113 5 -197 12 -222 17 -58 66 -102 128 -117 98 -24
194 6 238 73 27 40 27 43 30 244 l3 203 -44 0 c-69 0 -71 -7 -77 -212 -5 -174
-6 -180 -29 -199 -30 -24 -82 -24 -112 0 -23 19 -24 25 -29 199 -6 205 -8 212
-76 212 l-44 0 0 -181z"/>
<path d="M4956 958 c-23 -32 -23 -405 -1 -447 20 -40 61 -51 193 -51 l115 0
-7 32 c-10 53 -37 71 -108 76 -35 2 -69 9 -75 14 -10 8 -13 61 -13 204 l0 194
-44 0 c-35 0 -48 -5 -60 -22z"/>
<path d="M6730 967 c-46 -23 -50 -46 -50 -284 l0 -223 38 0 c20 0 42 4 49 8
20 13 33 61 33 123 0 58 1 59 28 59 23 0 33 -11 70 -75 55 -95 80 -115 143
-115 27 0 49 4 49 8 0 5 -17 35 -38 68 -21 32 -48 76 -60 96 l-23 37 30 16
c42 21 61 63 61 132 0 117 -61 163 -215 163 -52 0 -100 -6 -115 -13z m188 -93
c17 -11 22 -25 22 -56 0 -59 -21 -78 -87 -78 l-53 0 0 68 c0 38 3 72 7 75 12
13 89 7 111 -9z"/>
<path d="M7715 956 c-14 -21 -16 -56 -13 -230 l3 -206 28 -27 c27 -27 31 -28
159 -31 l131 -4 -7 34 c-10 53 -36 71 -108 76 -35 2 -69 9 -75 14 -10 8 -13
61 -13 204 l0 194 -45 0 c-36 0 -48 -5 -60 -24z"/>
</g>
</svg>
