<?xml version="1.0" standalone="no"?>
<!DOCTYPE svg PUBLIC "-//W3C//DTD SVG 20010904//EN"
 "http://www.w3.org/TR/2001/REC-SVG-20010904/DTD/svg10.dtd">
<svg version="1.0" xmlns="http://www.w3.org/2000/svg"
 width="378.000000pt" height="334.000000pt" viewBox="0 0 378.000000 334.000000"
 preserveAspectRatio="xMidYMid meet">

<g transform="translate(0.000000,334.000000) scale(0.100000,-0.100000)"
fill="#000000" stroke="none">
<path d="M2225 3178 c-222 -42 -383 -266 -347 -482 6 -37 23 -92 38 -124 16
-31 28 -62 27 -68 0 -9 -799 -990 -1185 -1457 -26 -32 -48 -64 -47 -70 1 -13
142 -137 156 -137 5 0 19 14 32 30 23 32 29 32 80 -9 l25 -19 -29 -38 -29 -38
59 -53 c32 -29 63 -53 69 -52 6 0 43 41 81 91 39 50 103 132 142 182 40 50 73
94 73 98 0 10 -113 98 -127 98 -6 0 -31 -25 -55 -55 -23 -30 -46 -55 -51 -55
-13 0 -67 43 -67 53 0 5 30 46 67 91 37 44 68 83 69 85 2 2 51 -34 110 -79 59
-45 110 -78 115 -73 20 21 99 127 99 134 0 4 -45 42 -101 84 -91 70 -99 79
-87 96 54 77 776 948 786 948 12 1 431 -405 1052 -1016 l165 -163 -53 0 -53 0
-147 143 c-151 145 -471 453 -782 750 -96 92 -177 167 -180 167 -4 0 -60 -64
-126 -142 -254 -303 -243 -284 -104 -183 98 71 129 89 138 80 4 -3 199 -198
434 -433 l428 -427 0 -312 0 -313 -214 0 -214 0 -4 188 c-3 186 -3 187 -35
254 -97 205 -335 293 -537 197 -74 -34 -151 -111 -188 -187 l-33 -66 -5 -191
-5 -190 -172 -3 -173 -2 0 155 c0 85 -3 155 -8 155 -4 0 -56 -63 -116 -140
-94 -122 -111 -139 -125 -128 -8 7 -118 102 -244 212 -150 130 -226 203 -223
212 3 8 249 311 546 674 l540 659 0 81 0 80 -345 0 -346 0 3 -122 c3 -119 4
-123 26 -126 21 -3 22 -8 22 -80 l0 -77 -143 -180 c-79 -99 -270 -339 -425
-533 -155 -194 -282 -357 -282 -363 0 -5 71 -9 170 -9 l170 0 0 -274 0 -274
752 -6 c414 -4 965 -6 1223 -4 l470 3 3 333 2 332 281 0 c154 0 279 4 277 9
-1 4 -281 280 -620 612 -390 381 -613 606 -605 610 6 3 34 9 60 12 161 21 316
178 349 354 41 221 -125 450 -356 492 -68 13 -82 12 -151 -1z m172 -273 c53
-31 83 -86 83 -150 0 -158 -194 -234 -302 -119 -139 149 43 372 219 269z
m-777 -520 c0 -19 -49 -83 -181 -238 -100 -117 -185 -213 -190 -215 -5 -2 -10
83 -11 190 -3 192 -3 193 -25 196 -20 3 -23 9 -23 48 l0 44 215 0 215 0 0 -25z
m367 -1436 c46 -22 90 -73 109 -128 8 -22 13 -88 14 -173 l0 -138 -175 0 -175
0 0 176 c0 157 2 181 21 225 17 38 28 51 53 59 41 12 101 4 153 -21z"/>
</g>
</svg>
