<?xml version="1.0" standalone="no"?>
<!DOCTYPE svg PUBLIC "-//W3C//DTD SVG 20010904//EN"
 "http://www.w3.org/TR/2001/REC-SVG-20010904/DTD/svg10.dtd">
<svg version="1.0" xmlns="http://www.w3.org/2000/svg"
 width="478.000000pt" height="114.000000pt" viewBox="0 0 478.000000 114.000000"
 preserveAspectRatio="xMidYMid meet">

<g transform="translate(0.000000,114.000000) scale(0.100000,-0.100000)"
fill="#000000" stroke="none">
<path d="M562 858 c-18 -18 -14 -53 8 -73 40 -37 95 19 63 64 -16 23 -52 28
-71 9z"/>
<path d="M356 842 c-2 -4 -7 -24 -11 -45 -7 -37 -18 -46 -31 -26 -4 8 -9 8
-17 0 -8 -8 -3 -19 16 -39 25 -26 26 -30 12 -42 -11 -9 -15 -32 -15 -87 0 -41
-7 -102 -16 -135 -17 -68 -14 -88 15 -88 23 0 44 58 62 170 5 35 12 66 14 68
1 2 16 -13 31 -34 l28 -36 -32 -62 c-36 -68 -38 -78 -19 -95 21 -16 39 4 84
91 l40 77 -21 22 c-12 12 9 -4 47 -35 37 -32 67 -62 67 -65 0 -6 -24 -25 -95
-76 -18 -13 2 -14 165 -15 186 0 200 3 138 34 -12 6 -24 21 -26 33 -2 12 -13
25 -25 29 -12 3 -32 16 -45 27 -21 20 -24 20 -50 5 -27 -16 -28 -16 -82 29
-89 73 -85 62 -49 135 l32 66 -37 51 -38 51 -68 0 c-38 0 -71 -3 -74 -8z m64
-55 c0 -2 -9 -12 -19 -21 -19 -17 -19 -17 -14 3 3 12 12 21 19 21 8 0 14 -2
14 -3z m50 -122 c-7 -8 -17 -12 -23 -8 -6 4 -3 11 8 19 23 17 32 10 15 -11z"/>
<path d="M1442 764 c-109 -56 -115 -216 -9 -270 67 -35 154 -14 201 49 28 39
28 126 0 164 -49 66 -128 89 -192 57z m136 -52 c38 -36 48 -72 33 -123 -20
-65 -92 -96 -155 -67 -48 21 -75 91 -56 144 28 75 121 99 178 46z"/>
<path d="M1090 625 c0 -138 1 -145 20 -145 18 0 20 7 20 65 l0 65 70 0 70 0 0
-65 c0 -58 2 -65 20 -65 19 0 20 7 20 145 0 138 -1 145 -20 145 -18 0 -20 -7
-20 -65 l0 -65 -70 0 -70 0 0 65 c0 58 -2 65 -20 65 -19 0 -20 -7 -20 -145z"/>
<path d="M1700 625 c0 -138 1 -145 20 -145 19 0 20 7 21 98 l0 97 47 -97 c33
-69 52 -97 65 -97 14 -1 31 26 67 102 l49 102 1 -102 c0 -96 1 -103 20 -103
19 0 20 7 20 145 0 140 -1 145 -21 145 -16 0 -31 -24 -77 -121 l-57 -122 -59
122 c-44 93 -62 121 -77 121 -18 0 -19 -9 -19 -145z"/>
<path d="M2060 625 l0 -145 85 0 c68 0 85 3 85 15 0 11 -16 15 -67 17 l-68 3
-3 48 -3 47 55 0 c42 0 56 4 56 14 0 11 -15 16 -52 18 l-53 3 -3 48 -3 47 70
0 c56 0 71 3 71 15 0 12 -16 15 -85 15 l-85 0 0 -145z"/>
<path d="M2400 624 l0 -146 86 3 c76 4 88 7 105 28 27 33 24 77 -6 107 -23 23
-24 27 -10 47 21 30 19 63 -5 87 -16 16 -33 20 -95 20 l-75 0 0 -146z m138
104 c18 -18 14 -56 -7 -68 -11 -5 -36 -10 -55 -10 -36 0 -36 0 -36 45 l0 45
43 0 c24 0 48 -5 55 -12z m14 -125 c45 -40 9 -93 -64 -93 l-48 0 0 55 0 55 47
0 c29 0 53 -6 65 -17z"/>
<path d="M2650 654 l0 -116 34 -34 c51 -51 124 -44 159 16 23 38 25 250 3 250
-11 0 -15 -23 -18 -109 -3 -125 -16 -151 -73 -151 -55 0 -65 22 -65 148 0 105
-1 112 -20 112 -19 0 -20 -7 -20 -116z"/>
<path d="M2910 625 c0 -138 1 -145 20 -145 19 0 20 7 20 145 0 138 -1 145 -20
145 -19 0 -20 -7 -20 -145z"/>
<path d="M3000 625 l0 -145 85 0 c68 0 85 3 85 15 0 11 -16 15 -67 17 l-68 3
-3 128 c-2 104 -5 127 -17 127 -13 0 -15 -24 -15 -145z"/>
<path d="M3210 625 l0 -145 61 0 c110 0 169 51 169 145 0 94 -59 145 -169 145
l-61 0 0 -145z m135 101 c36 -15 49 -33 60 -83 14 -69 -53 -138 -128 -131
l-32 3 -3 113 -3 112 36 0 c20 0 51 -6 70 -14z"/>
<path d="M3480 625 l0 -145 90 0 c73 0 90 3 90 15 0 12 -14 15 -70 15 l-70 0
0 50 0 50 55 0 c42 0 55 3 55 15 0 12 -13 15 -55 15 l-55 0 0 50 0 50 70 0
c56 0 70 3 70 15 0 12 -17 15 -90 15 l-90 0 0 -145z"/>
<path d="M3700 625 c0 -138 1 -145 20 -145 17 0 20 7 20 50 l0 50 35 0 c31 0
40 -6 71 -50 22 -31 43 -50 56 -50 18 0 16 6 -17 51 l-37 51 25 27 c34 36 40
64 23 104 -19 47 -41 57 -125 57 l-71 0 0 -145z m150 95 c46 -46 13 -100 -62
-100 l-48 0 0 60 0 60 45 0 c32 0 51 -6 65 -20z"/>
<path d="M4080 625 l0 -145 85 0 c69 0 85 3 85 15 0 12 -14 15 -65 15 l-65 0
0 130 c0 123 -1 130 -20 130 -19 0 -20 -7 -20 -145z"/>
<path d="M4345 633 c-33 -75 -61 -140 -63 -144 -2 -5 5 -9 15 -9 12 0 26 13
36 35 l17 35 75 0 76 0 15 -35 c9 -23 21 -35 34 -35 17 0 14 10 -27 103 -25
56 -54 121 -64 145 -31 72 -46 59 -114 -95z m134 -40 c1 -9 -17 -13 -59 -13
l-59 0 20 48 c12 26 26 58 31 72 10 24 11 23 38 -35 16 -33 29 -66 29 -72z"/>
</g>
</svg>
